<svg width="646" height="117" viewBox="0 0 646 117" fill="none" xmlns="http://www.w3.org/2000/svg">
<rect x="3.56323" y="32.7887" width="43.2295" height="14.1614" rx="7.0807" transform="rotate(-30 3.56323 32.7887)" fill="#DB4437"/>
<rect x="10.5735" y="25.7292" width="43.2295" height="14.1614" rx="7.0807" transform="rotate(29.5587 10.5735 25.7292)" fill="#4285F4"/>
<rect x="98.3936" y="37.5359" width="43.2295" height="14.1614" rx="7.0807" transform="rotate(150 98.3936 37.5359)" fill="#F4B400"/>
<rect x="91.3833" y="44.5953" width="43.2295" height="14.1614" rx="7.0807" transform="rotate(-150.441 91.3833 44.5953)" fill="#0F9D58"/>
<path d="M129.647 16.2396H139.952C143.282 16.2396 146.192 16.9146 148.682 18.2646C151.172 19.6146 153.077 21.5196 154.397 23.9796C155.747 26.4096 156.422 29.1996 156.422 32.3496C156.422 35.4996 155.747 38.3046 154.397 40.7646C153.077 43.1946 151.172 45.0846 148.682 46.4346C146.192 47.7846 143.282 48.4596 139.952 48.4596H129.647V16.2396ZM139.862 43.6446C143.462 43.6446 146.267 42.6546 148.277 40.6746C150.317 38.6646 151.337 35.8896 151.337 32.3496C151.337 28.8396 150.317 26.0796 148.277 24.0696C146.267 22.0596 143.462 21.0546 139.862 21.0546H134.687V43.6446H139.862ZM171.182 49.1796C168.932 49.1796 166.907 48.6546 165.107 47.6046C163.337 46.5546 161.942 45.1146 160.922 43.2846C159.932 41.4246 159.437 39.3396 159.437 37.0296C159.437 34.8396 159.917 32.8146 160.877 30.9546C161.867 29.0646 163.232 27.5646 164.972 26.4546C166.712 25.3446 168.692 24.7896 170.912 24.7896C173.222 24.7896 175.217 25.2996 176.897 26.3196C178.607 27.3396 179.897 28.7346 180.767 30.5046C181.667 32.2746 182.117 34.2696 182.117 36.4896C182.117 36.9096 182.072 37.4346 181.982 38.0646H164.387C164.567 40.1946 165.317 41.8446 166.637 43.0146C167.987 44.1546 169.547 44.7246 171.317 44.7246C172.727 44.7246 173.942 44.4096 174.962 43.7796C176.012 43.1196 176.852 42.2346 177.482 41.1246L181.667 43.1046C180.587 44.9946 179.177 46.4796 177.437 47.5596C175.697 48.6396 173.612 49.1796 171.182 49.1796ZM177.077 34.2846C177.017 33.4746 176.762 32.6796 176.312 31.8996C175.862 31.0896 175.172 30.4146 174.242 29.8746C173.342 29.3346 172.232 29.0646 170.912 29.0646C169.322 29.0646 167.972 29.5446 166.862 30.5046C165.782 31.4346 165.032 32.6946 164.612 34.2846H177.077ZM183.62 25.5096H189.155L195.5 42.0696H195.68L202.16 25.5096H207.56L198.02 48.4596H193.07L183.62 25.5096ZM220.576 49.1796C218.326 49.1796 216.301 48.6546 214.501 47.6046C212.731 46.5546 211.336 45.1146 210.316 43.2846C209.326 41.4246 208.831 39.3396 208.831 37.0296C208.831 34.8396 209.311 32.8146 210.271 30.9546C211.261 29.0646 212.626 27.5646 214.366 26.4546C216.106 25.3446 218.086 24.7896 220.306 24.7896C222.616 24.7896 224.611 25.2996 226.291 26.3196C228.001 27.3396 229.291 28.7346 230.161 30.5046C231.061 32.2746 231.511 34.2696 231.511 36.4896C231.511 36.9096 231.466 37.4346 231.376 38.0646H213.781C213.961 40.1946 214.711 41.8446 216.031 43.0146C217.381 44.1546 218.941 44.7246 220.711 44.7246C222.121 44.7246 223.336 44.4096 224.356 43.7796C225.406 43.1196 226.246 42.2346 226.876 41.1246L231.061 43.1046C229.981 44.9946 228.571 46.4796 226.831 47.5596C225.091 48.6396 223.006 49.1796 220.576 49.1796ZM226.471 34.2846C226.411 33.4746 226.156 32.6796 225.706 31.8996C225.256 31.0896 224.566 30.4146 223.636 29.8746C222.736 29.3346 221.626 29.0646 220.306 29.0646C218.716 29.0646 217.366 29.5446 216.256 30.5046C215.176 31.4346 214.426 32.6946 214.006 34.2846H226.471ZM236.019 16.2396H240.969V48.4596H236.019V16.2396ZM257.321 49.1796C255.011 49.1796 252.941 48.6546 251.111 47.6046C249.281 46.5246 247.856 45.0546 246.836 43.1946C245.816 41.3346 245.306 39.2646 245.306 36.9846C245.306 34.7046 245.816 32.6346 246.836 30.7746C247.856 28.9146 249.281 27.4596 251.111 26.4096C252.941 25.3296 255.011 24.7896 257.321 24.7896C259.631 24.7896 261.701 25.3296 263.531 26.4096C265.361 27.4896 266.786 28.9596 267.806 30.8196C268.826 32.6796 269.336 34.7346 269.336 36.9846C269.336 39.2646 268.826 41.3346 267.806 43.1946C266.786 45.0546 265.361 46.5246 263.531 47.6046C261.701 48.6546 259.631 49.1796 257.321 49.1796ZM257.321 44.6346C258.581 44.6346 259.751 44.3346 260.831 43.7346C261.911 43.1046 262.766 42.2196 263.396 41.0796C264.056 39.9096 264.386 38.5446 264.386 36.9846C264.386 35.4246 264.056 34.0746 263.396 32.9346C262.766 31.7946 261.911 30.9246 260.831 30.3246C259.751 29.6946 258.581 29.3796 257.321 29.3796C256.061 29.3796 254.891 29.6946 253.811 30.3246C252.731 30.9246 251.861 31.7946 251.201 32.9346C250.571 34.0746 250.256 35.4246 250.256 36.9846C250.256 38.5446 250.571 39.9096 251.201 41.0796C251.861 42.2196 252.731 43.1046 253.811 43.7346C254.891 44.3346 256.061 44.6346 257.321 44.6346ZM273.5 25.5096H278.225V28.5246H278.45C279.11 27.4746 280.085 26.5896 281.375 25.8696C282.665 25.1496 284.12 24.7896 285.74 24.7896C287.81 24.7896 289.685 25.3146 291.365 26.3646C293.045 27.4146 294.365 28.8696 295.325 30.7296C296.315 32.5596 296.81 34.6446 296.81 36.9846C296.81 39.3246 296.315 41.4246 295.325 43.2846C294.365 45.1146 293.045 46.5546 291.365 47.6046C289.685 48.6546 287.81 49.1796 285.74 49.1796C284.12 49.1796 282.665 48.8196 281.375 48.0996C280.085 47.3796 279.11 46.5096 278.45 45.4896H278.225L278.45 48.6846V58.1796H273.5V25.5096ZM285.02 44.6346C286.22 44.6346 287.345 44.3196 288.395 43.6896C289.445 43.0596 290.285 42.1596 290.915 40.9896C291.545 39.8196 291.86 38.4846 291.86 36.9846C291.86 35.4846 291.545 34.1646 290.915 33.0246C290.285 31.8546 289.445 30.9546 288.395 30.3246C287.345 29.6946 286.22 29.3796 285.02 29.3796C283.82 29.3796 282.695 29.6946 281.645 30.3246C280.625 30.9546 279.8 31.8546 279.17 33.0246C278.54 34.1646 278.225 35.4846 278.225 36.9846C278.225 38.4846 278.54 39.8196 279.17 40.9896C279.8 42.1596 280.625 43.0596 281.645 43.6896C282.695 44.3196 283.82 44.6346 285.02 44.6346ZM311.807 49.1796C309.557 49.1796 307.532 48.6546 305.732 47.6046C303.962 46.5546 302.567 45.1146 301.547 43.2846C300.557 41.4246 300.062 39.3396 300.062 37.0296C300.062 34.8396 300.542 32.8146 301.502 30.9546C302.492 29.0646 303.857 27.5646 305.597 26.4546C307.337 25.3446 309.317 24.7896 311.537 24.7896C313.847 24.7896 315.842 25.2996 317.522 26.3196C319.232 27.3396 320.522 28.7346 321.392 30.5046C322.292 32.2746 322.742 34.2696 322.742 36.4896C322.742 36.9096 322.697 37.4346 322.607 38.0646H305.012C305.192 40.1946 305.942 41.8446 307.262 43.0146C308.612 44.1546 310.172 44.7246 311.942 44.7246C313.352 44.7246 314.567 44.4096 315.587 43.7796C316.637 43.1196 317.477 42.2346 318.107 41.1246L322.292 43.1046C321.212 44.9946 319.802 46.4796 318.062 47.5596C316.322 48.6396 314.237 49.1796 311.807 49.1796ZM317.702 34.2846C317.642 33.4746 317.387 32.6796 316.937 31.8996C316.487 31.0896 315.797 30.4146 314.867 29.8746C313.967 29.3346 312.857 29.0646 311.537 29.0646C309.947 29.0646 308.597 29.5446 307.487 30.5046C306.407 31.4346 305.657 32.6946 305.237 34.2846H317.702ZM327.25 25.5096H331.975V28.8846H332.2C332.71 27.7146 333.595 26.7546 334.855 26.0046C336.115 25.2246 337.45 24.8346 338.86 24.8346C339.97 24.8346 340.9 24.9846 341.65 25.2846V30.4146C340.33 29.9346 339.145 29.6946 338.095 29.6946C336.955 29.6946 335.935 29.9946 335.035 30.5946C334.165 31.1946 333.475 32.0046 332.965 33.0246C332.455 34.0146 332.2 35.1096 332.2 36.3096V48.4596H327.25V25.5096ZM364.753 49.1796C362.083 49.1796 359.683 48.3996 357.553 46.8396C355.423 45.2796 353.953 43.0896 353.143 40.2696L357.913 38.3346C358.393 40.1046 359.233 41.5596 360.433 42.6996C361.663 43.8096 363.133 44.3646 364.843 44.3646C366.433 44.3646 367.783 43.9596 368.893 43.1496C370.003 42.3096 370.558 41.1696 370.558 39.7296C370.558 38.4096 370.063 37.3296 369.073 36.4896C368.113 35.6196 366.418 34.7496 363.988 33.8796L361.963 33.1596C359.803 32.4096 357.988 31.3296 356.518 29.9196C355.048 28.5096 354.313 26.6496 354.313 24.3396C354.313 22.7496 354.748 21.2796 355.618 19.9296C356.488 18.5796 357.688 17.5146 359.218 16.7346C360.778 15.9246 362.533 15.5196 364.483 15.5196C367.303 15.5196 369.553 16.2096 371.233 17.5896C372.913 18.9396 374.038 20.4696 374.608 22.1796L370.063 24.1146C369.733 23.0946 369.103 22.1946 368.173 21.4146C367.243 20.6346 366.043 20.2446 364.573 20.2446C363.103 20.2446 361.858 20.6196 360.838 21.3696C359.848 22.1196 359.353 23.0796 359.353 24.2496C359.353 25.3596 359.803 26.2746 360.703 26.9946C361.603 27.7146 363.013 28.4046 364.933 29.0646L366.958 29.7396C369.718 30.6996 371.848 31.9596 373.348 33.5196C374.878 35.0496 375.643 37.1046 375.643 39.6846C375.643 41.7846 375.103 43.5546 374.023 44.9946C372.943 46.4046 371.563 47.4546 369.883 48.1446C368.233 48.8346 366.523 49.1796 364.753 49.1796ZM388.862 48.8196C387.842 48.8196 386.882 48.6546 385.982 48.3246C385.082 47.9946 384.347 47.5596 383.777 47.0196C382.487 45.7296 381.842 43.9746 381.842 41.7546V29.8746H377.837V25.5096H381.842V19.0296H386.792V25.5096H392.372V29.8746H386.792V40.6746C386.792 41.9046 387.032 42.7746 387.512 43.2846C387.962 43.8846 388.742 44.1846 389.852 44.1846C390.362 44.1846 390.812 44.1246 391.202 44.0046C391.592 43.8546 392.012 43.6296 392.462 43.3296V48.1446C391.472 48.5946 390.272 48.8196 388.862 48.8196ZM405.449 49.1796C402.659 49.1796 400.529 48.3546 399.059 46.7046C397.619 45.0246 396.899 42.6996 396.899 39.7296V25.5096H401.849V39.0546C401.849 40.9146 402.284 42.3096 403.154 43.2396C404.054 44.1696 405.224 44.6346 406.664 44.6346C407.834 44.6346 408.869 44.3346 409.769 43.7346C410.669 43.1046 411.359 42.2796 411.839 41.2596C412.319 40.2396 412.559 39.1446 412.559 37.9746V25.5096H417.509V48.4596H412.829V45.4896H412.559C411.929 46.5696 410.954 47.4546 409.634 48.1446C408.314 48.8346 406.919 49.1796 405.449 49.1796ZM432.86 49.1796C430.79 49.1796 428.915 48.6546 427.235 47.6046C425.555 46.5546 424.22 45.1146 423.23 43.2846C422.27 41.4246 421.79 39.3246 421.79 36.9846C421.79 34.6446 422.27 32.5596 423.23 30.7296C424.22 28.8696 425.555 27.4146 427.235 26.3646C428.915 25.3146 430.79 24.7896 432.86 24.7896C434.48 24.7896 435.935 25.1496 437.225 25.8696C438.515 26.5896 439.49 27.4746 440.15 28.5246H440.375L440.15 25.2846V16.2396H445.1V48.4596H440.375V45.4896H440.15C439.49 46.5096 438.515 47.3796 437.225 48.0996C435.935 48.8196 434.48 49.1796 432.86 49.1796ZM433.58 44.6346C434.78 44.6346 435.89 44.3196 436.91 43.6896C437.96 43.0596 438.8 42.1596 439.43 40.9896C440.06 39.8196 440.375 38.4846 440.375 36.9846C440.375 35.4846 440.06 34.1646 439.43 33.0246C438.8 31.8546 437.96 30.9546 436.91 30.3246C435.89 29.6946 434.78 29.3796 433.58 29.3796C432.38 29.3796 431.255 29.6946 430.205 30.3246C429.155 30.9546 428.315 31.8546 427.685 33.0246C427.055 34.1646 426.74 35.4846 426.74 36.9846C426.74 38.4846 427.055 39.8196 427.685 40.9896C428.315 42.1596 429.155 43.0596 430.205 43.6896C431.255 44.3196 432.38 44.6346 433.58 44.6346ZM461.133 49.1796C458.883 49.1796 456.858 48.6546 455.058 47.6046C453.288 46.5546 451.893 45.1146 450.873 43.2846C449.883 41.4246 449.388 39.3396 449.388 37.0296C449.388 34.8396 449.868 32.8146 450.828 30.9546C451.818 29.0646 453.183 27.5646 454.923 26.4546C456.663 25.3446 458.643 24.7896 460.863 24.7896C463.173 24.7896 465.168 25.2996 466.848 26.3196C468.558 27.3396 469.848 28.7346 470.718 30.5046C471.618 32.2746 472.068 34.2696 472.068 36.4896C472.068 36.9096 472.023 37.4346 471.933 38.0646H454.338C454.518 40.1946 455.268 41.8446 456.588 43.0146C457.938 44.1546 459.498 44.7246 461.268 44.7246C462.678 44.7246 463.893 44.4096 464.913 43.7796C465.963 43.1196 466.803 42.2346 467.433 41.1246L471.618 43.1046C470.538 44.9946 469.128 46.4796 467.388 47.5596C465.648 48.6396 463.563 49.1796 461.133 49.1796ZM467.028 34.2846C466.968 33.4746 466.713 32.6796 466.263 31.8996C465.813 31.0896 465.123 30.4146 464.193 29.8746C463.293 29.3346 462.183 29.0646 460.863 29.0646C459.273 29.0646 457.923 29.5446 456.813 30.5046C455.733 31.4346 454.983 32.6946 454.563 34.2846H467.028ZM476.576 25.5096H481.301V28.5246H481.526C482.186 27.4446 483.161 26.5596 484.451 25.8696C485.771 25.1496 487.166 24.7896 488.636 24.7896C491.426 24.7896 493.541 25.6146 494.981 27.2646C496.451 28.8846 497.186 31.1046 497.186 33.9246V48.4596H492.236V34.5996C492.236 32.7996 491.786 31.4796 490.886 30.6396C490.016 29.7996 488.801 29.3796 487.241 29.3796C486.131 29.3796 485.141 29.6946 484.271 30.3246C483.401 30.9246 482.726 31.7346 482.246 32.7546C481.766 33.7746 481.526 34.8696 481.526 36.0396V48.4596H476.576V25.5096ZM511.03 48.8196C510.01 48.8196 509.05 48.6546 508.15 48.3246C507.25 47.9946 506.515 47.5596 505.945 47.0196C504.655 45.7296 504.01 43.9746 504.01 41.7546V29.8746H500.005V25.5096H504.01V19.0296H508.96V25.5096H514.54V29.8746H508.96V40.6746C508.96 41.9046 509.2 42.7746 509.68 43.2846C510.13 43.8846 510.91 44.1846 512.02 44.1846C512.53 44.1846 512.98 44.1246 513.37 44.0046C513.76 43.8546 514.18 43.6296 514.63 43.3296V48.1446C513.64 48.5946 512.44 48.8196 511.03 48.8196ZM544.935 49.1796C541.815 49.1796 538.965 48.4446 536.385 46.9746C533.805 45.5046 531.78 43.4796 530.31 40.8996C528.84 38.3196 528.105 35.4696 528.105 32.3496C528.105 29.2296 528.84 26.3796 530.31 23.7996C531.78 21.2196 533.805 19.1946 536.385 17.7246C538.965 16.2546 541.815 15.5196 544.935 15.5196C547.365 15.5196 549.57 15.9696 551.55 16.8696C553.56 17.7696 555.33 19.0746 556.86 20.7846L553.26 24.2496C552.15 22.9296 550.92 21.9546 549.57 21.3246C548.22 20.6646 546.675 20.3346 544.935 20.3346C542.775 20.3346 540.795 20.8296 538.995 21.8196C537.225 22.8096 535.815 24.2196 534.765 26.0496C533.715 27.8496 533.19 29.9496 533.19 32.3496C533.19 34.7496 533.715 36.8646 534.765 38.6946C535.815 40.4946 537.225 41.8896 538.995 42.8796C540.795 43.8696 542.775 44.3646 544.935 44.3646C548.535 44.3646 551.595 42.8646 554.115 39.8646L557.76 43.3746C556.2 45.2046 554.325 46.6296 552.135 47.6496C549.945 48.6696 547.545 49.1796 544.935 49.1796ZM562.137 16.2396H567.087V48.4596H562.137V16.2396ZM581.274 49.1796C578.484 49.1796 576.354 48.3546 574.884 46.7046C573.444 45.0246 572.724 42.6996 572.724 39.7296V25.5096H577.674V39.0546C577.674 40.9146 578.109 42.3096 578.979 43.2396C579.879 44.1696 581.049 44.6346 582.489 44.6346C583.659 44.6346 584.694 44.3346 585.594 43.7346C586.494 43.1046 587.184 42.2796 587.664 41.2596C588.144 40.2396 588.384 39.1446 588.384 37.9746V25.5096H593.334V48.4596H588.654V45.4896H588.384C587.754 46.5696 586.779 47.4546 585.459 48.1446C584.139 48.8346 582.744 49.1796 581.274 49.1796ZM611.335 49.1796C609.715 49.1796 608.26 48.8196 606.97 48.0996C605.68 47.3796 604.705 46.5096 604.045 45.4896H603.82V48.4596H599.095V16.2396H604.045V25.2846L603.82 28.5246H604.045C604.705 27.4746 605.68 26.5896 606.97 25.8696C608.26 25.1496 609.715 24.7896 611.335 24.7896C613.405 24.7896 615.28 25.3146 616.96 26.3646C618.64 27.4146 619.96 28.8696 620.92 30.7296C621.91 32.5596 622.405 34.6446 622.405 36.9846C622.405 39.3246 621.91 41.4246 620.92 43.2846C619.96 45.1146 618.64 46.5546 616.96 47.6046C615.28 48.6546 613.405 49.1796 611.335 49.1796ZM610.615 44.6346C611.815 44.6346 612.94 44.3196 613.99 43.6896C615.04 43.0596 615.88 42.1596 616.51 40.9896C617.14 39.8196 617.455 38.4846 617.455 36.9846C617.455 35.4846 617.14 34.1646 616.51 33.0246C615.88 31.8546 615.04 30.9546 613.99 30.3246C612.94 29.6946 611.815 29.3796 610.615 29.3796C609.415 29.3796 608.29 29.6946 607.24 30.3246C606.22 30.9546 605.395 31.8546 604.765 33.0246C604.135 34.1646 603.82 35.4846 603.82 36.9846C603.82 38.4846 604.135 39.8196 604.765 40.9896C605.395 42.1596 606.22 43.0596 607.24 43.6896C608.29 44.3196 609.415 44.6346 610.615 44.6346ZM635.063 49.1796C632.423 49.1796 630.263 48.6096 628.583 47.4696C626.903 46.2996 625.718 44.8146 625.028 43.0146L629.438 41.0796C629.978 42.2796 630.728 43.1946 631.688 43.8246C632.678 44.4546 633.803 44.7696 635.063 44.7696C636.293 44.7696 637.328 44.5596 638.168 44.1396C639.008 43.6896 639.428 43.0296 639.428 42.1596C639.428 41.3196 639.068 40.6596 638.348 40.1796C637.628 39.6996 636.518 39.2796 635.018 38.9196L632.273 38.2446C630.443 37.7946 628.928 36.9996 627.728 35.8596C626.528 34.7196 625.928 33.2796 625.928 31.5396C625.928 30.1896 626.318 29.0046 627.098 27.9846C627.908 26.9646 628.988 26.1846 630.338 25.6446C631.688 25.0746 633.158 24.7896 634.748 24.7896C636.878 24.7896 638.753 25.2246 640.373 26.0946C641.993 26.9346 643.163 28.1646 643.883 29.7846L639.563 31.6746C638.693 29.9046 637.103 29.0196 634.793 29.0196C633.683 29.0196 632.753 29.2446 632.003 29.6946C631.253 30.1446 630.878 30.7296 630.878 31.4496C630.878 32.1396 631.163 32.7096 631.733 33.1596C632.303 33.5796 633.143 33.9396 634.253 34.2396L637.628 35.0946C639.878 35.6646 641.573 36.5346 642.713 37.7046C643.883 38.8446 644.468 40.2546 644.468 41.9346C644.468 43.3746 644.048 44.6496 643.208 45.7596C642.398 46.8396 641.273 47.6796 639.833 48.2796C638.393 48.8796 636.803 49.1796 635.063 49.1796Z" fill="#434343"/>
<path d="M133.614 107.956C131.981 107.956 130.555 107.511 129.336 106.623C128.116 105.713 127.259 104.442 126.763 102.81L129.243 101.787C129.987 104.225 131.444 105.445 133.614 105.445C134.833 105.445 135.804 105.021 136.528 104.174C137.272 103.326 137.644 102.21 137.644 100.826V85.2636H140.279V100.609C140.279 102.159 139.989 103.492 139.411 104.608C138.853 105.703 138.067 106.54 137.055 107.119C136.063 107.677 134.916 107.956 133.614 107.956ZM151.075 107.956C149.339 107.956 147.748 107.429 146.301 106.375C144.854 105.321 143.862 103.843 143.325 101.942L145.836 100.919C146.187 102.241 146.838 103.326 147.789 104.174C148.74 105.021 149.856 105.445 151.137 105.445C152.418 105.445 153.503 105.104 154.392 104.422C155.281 103.719 155.725 102.768 155.725 101.57C155.725 100.536 155.343 99.6889 154.578 99.0276C153.834 98.3456 152.604 97.7153 150.889 97.1366L149.494 96.6406C147.923 96.0826 146.642 95.3489 145.65 94.4396C144.658 93.5303 144.162 92.2696 144.162 90.6576C144.162 89.6036 144.451 88.6323 145.03 87.7436C145.609 86.8343 146.415 86.1109 147.448 85.5736C148.481 85.0363 149.639 84.7676 150.92 84.7676C152.201 84.7676 153.317 85.0053 154.268 85.4806C155.219 85.9559 155.973 86.5346 156.531 87.2166C157.11 87.8986 157.513 88.5703 157.74 89.2316L155.26 90.2856C155.053 89.5209 154.578 88.8286 153.834 88.2086C153.111 87.5886 152.15 87.2786 150.951 87.2786C149.814 87.2786 148.843 87.5989 148.037 88.2396C147.231 88.8803 146.828 89.6863 146.828 90.6576C146.828 91.5256 147.169 92.2386 147.851 92.7966C148.533 93.3339 149.566 93.8403 150.951 94.3156L152.408 94.8116C154.289 95.4936 155.756 96.3513 156.81 97.3846C157.864 98.3973 158.391 99.7819 158.391 101.539C158.391 102.965 158.019 104.163 157.275 105.135C156.552 106.106 155.632 106.819 154.516 107.274C153.4 107.728 152.253 107.956 151.075 107.956ZM168.452 107.956C166.716 107.956 165.125 107.429 163.678 106.375C162.231 105.321 161.239 103.843 160.702 101.942L163.213 100.919C163.564 102.241 164.215 103.326 165.166 104.174C166.117 105.021 167.233 105.445 168.514 105.445C169.795 105.445 170.88 105.104 171.769 104.422C172.658 103.719 173.102 102.768 173.102 101.57C173.102 100.536 172.72 99.6889 171.955 99.0276C171.211 98.3456 169.981 97.7153 168.266 97.1366L166.871 96.6406C165.3 96.0826 164.019 95.3489 163.027 94.4396C162.035 93.5303 161.539 92.2696 161.539 90.6576C161.539 89.6036 161.828 88.6323 162.407 87.7436C162.986 86.8343 163.792 86.1109 164.825 85.5736C165.858 85.0363 167.016 84.7676 168.297 84.7676C169.578 84.7676 170.694 85.0053 171.645 85.4806C172.596 85.9559 173.35 86.5346 173.908 87.2166C174.487 87.8986 174.89 88.5703 175.117 89.2316L172.637 90.2856C172.43 89.5209 171.955 88.8286 171.211 88.2086C170.488 87.5886 169.527 87.2786 168.328 87.2786C167.191 87.2786 166.22 87.5989 165.414 88.2396C164.608 88.8803 164.205 89.6863 164.205 90.6576C164.205 91.5256 164.546 92.2386 165.228 92.7966C165.91 93.3339 166.943 93.8403 168.328 94.3156L169.785 94.8116C171.666 95.4936 173.133 96.3513 174.187 97.3846C175.241 98.3973 175.768 99.7819 175.768 101.539C175.768 102.965 175.396 104.163 174.652 105.135C173.929 106.106 173.009 106.819 171.893 107.274C170.777 107.728 169.63 107.956 168.452 107.956ZM192.282 85.2636H195.258L203.69 107.46H200.807L198.575 101.353H188.996L186.764 107.46H183.881L192.282 85.2636ZM197.676 98.8726L194.731 90.8746L193.832 88.4876H193.708L192.84 90.8746L189.895 98.8726H197.676ZM212.813 107.956C211.283 107.956 209.909 107.594 208.69 106.871C207.47 106.127 206.52 105.124 205.838 103.864C205.156 102.582 204.815 101.146 204.815 99.5546C204.815 97.9633 205.156 96.5269 205.838 95.2456C206.52 93.9643 207.47 92.9619 208.69 92.2386C209.909 91.5153 211.283 91.1536 212.813 91.1536C214.528 91.1536 215.964 91.5566 217.122 92.3626C218.3 93.1479 219.137 94.2019 219.633 95.5246L217.246 96.5166C216.853 95.5453 216.264 94.8116 215.479 94.3156C214.714 93.7989 213.784 93.5406 212.689 93.5406C211.759 93.5406 210.891 93.7989 210.085 94.3156C209.279 94.8116 208.628 95.5143 208.132 96.4236C207.656 97.3329 207.419 98.3766 207.419 99.5546C207.419 100.733 207.656 101.776 208.132 102.686C208.628 103.595 209.279 104.308 210.085 104.825C210.891 105.321 211.759 105.569 212.689 105.569C213.805 105.569 214.766 105.31 215.572 104.794C216.378 104.277 216.977 103.543 217.37 102.593L219.726 103.585C219.188 104.887 218.32 105.941 217.122 106.747C215.944 107.553 214.507 107.956 212.813 107.956ZM227.476 107.956C226.319 107.956 225.286 107.728 224.376 107.274C223.467 106.819 222.764 106.199 222.268 105.414C221.772 104.608 221.524 103.698 221.524 102.686C221.524 101.012 222.155 99.7096 223.415 98.7796C224.676 97.8289 226.267 97.3536 228.189 97.3536C229.14 97.3536 230.018 97.4569 230.824 97.6636C231.651 97.8703 232.281 98.1079 232.715 98.3766V97.4156C232.715 96.2376 232.302 95.2973 231.475 94.5946C230.649 93.8713 229.605 93.5096 228.344 93.5096C227.456 93.5096 226.639 93.7059 225.895 94.0986C225.151 94.4706 224.562 94.9976 224.128 95.6796L222.144 94.1916C222.764 93.2409 223.612 92.4969 224.686 91.9596C225.782 91.4223 226.991 91.1536 228.313 91.1536C230.463 91.1536 232.147 91.7219 233.366 92.8586C234.606 93.9746 235.226 95.5039 235.226 97.4466V107.46H232.715V105.197H232.591C232.137 105.961 231.455 106.612 230.545 107.15C229.636 107.687 228.613 107.956 227.476 107.956ZM227.724 105.631C228.613 105.631 229.44 105.403 230.204 104.949C230.969 104.494 231.579 103.884 232.033 103.12C232.488 102.355 232.715 101.518 232.715 100.609C232.219 100.278 231.61 100.009 230.886 99.8026C230.163 99.5959 229.398 99.4926 228.592 99.4926C227.146 99.4926 226.05 99.7923 225.306 100.392C224.583 100.991 224.221 101.766 224.221 102.717C224.221 103.585 224.552 104.287 225.213 104.825C225.875 105.362 226.712 105.631 227.724 105.631ZM245.437 107.956C244.031 107.956 242.75 107.594 241.593 106.871C240.456 106.147 239.557 105.155 238.896 103.895C238.234 102.613 237.904 101.167 237.904 99.5546C237.904 97.9633 238.234 96.5269 238.896 95.2456C239.557 93.9643 240.456 92.9619 241.593 92.2386C242.75 91.5153 244.031 91.1536 245.437 91.1536C246.656 91.1536 247.741 91.4326 248.692 91.9906C249.642 92.5279 250.366 93.1996 250.862 94.0056H250.986L250.862 91.8046V85.2636H253.497V107.46H250.986V105.135H250.862C250.366 105.92 249.642 106.592 248.692 107.15C247.741 107.687 246.656 107.956 245.437 107.956ZM245.747 105.569C246.677 105.569 247.534 105.321 248.32 104.825C249.126 104.329 249.766 103.626 250.242 102.717C250.738 101.807 250.986 100.753 250.986 99.5546C250.986 98.3559 250.738 97.3019 250.242 96.3926C249.766 95.4833 249.126 94.7806 248.32 94.2846C247.534 93.7886 246.677 93.5406 245.747 93.5406C244.837 93.5406 243.98 93.7886 243.174 94.2846C242.368 94.7806 241.717 95.4936 241.221 96.4236C240.745 97.3329 240.508 98.3766 240.508 99.5546C240.508 100.733 240.745 101.787 241.221 102.717C241.717 103.626 242.368 104.329 243.174 104.825C243.98 105.321 244.837 105.569 245.747 105.569ZM264.275 107.956C262.766 107.956 261.412 107.594 260.214 106.871C259.015 106.147 258.075 105.155 257.393 103.895C256.731 102.613 256.401 101.177 256.401 99.5856C256.401 98.0563 256.711 96.6509 257.331 95.3696C257.971 94.0883 258.87 93.0653 260.028 92.3006C261.185 91.5359 262.528 91.1536 264.058 91.1536C265.608 91.1536 266.951 91.5049 268.088 92.2076C269.224 92.8896 270.092 93.8403 270.692 95.0596C271.312 96.2789 271.622 97.6739 271.622 99.2446C271.622 99.5546 271.591 99.8233 271.529 100.051H259.036C259.098 101.249 259.387 102.262 259.904 103.089C260.42 103.915 261.071 104.535 261.857 104.949C262.663 105.362 263.5 105.569 264.368 105.569C266.393 105.569 267.953 104.618 269.049 102.717L271.281 103.802C270.599 105.083 269.669 106.096 268.491 106.84C267.333 107.584 265.928 107.956 264.275 107.956ZM268.832 97.8806C268.79 97.2193 268.604 96.5579 268.274 95.8966C267.943 95.2353 267.416 94.6773 266.693 94.2226C265.99 93.7679 265.101 93.5406 264.027 93.5406C262.787 93.5406 261.733 93.9436 260.865 94.7496C260.017 95.5349 259.459 96.5786 259.191 97.8806H268.832ZM274.705 91.6496H277.216V93.9746H277.34C277.795 93.1686 278.477 92.4969 279.386 91.9596C280.296 91.4223 281.257 91.1536 282.269 91.1536C283.427 91.1536 284.429 91.4326 285.276 91.9906C286.144 92.5486 286.764 93.2926 287.136 94.2226C287.694 93.2926 288.428 92.5486 289.337 91.9906C290.267 91.4326 291.342 91.1536 292.561 91.1536C294.38 91.1536 295.744 91.7116 296.653 92.8276C297.583 93.9229 298.048 95.4213 298.048 97.3226V107.46H295.444V97.7256C295.444 96.2583 295.145 95.1939 294.545 94.5326C293.946 93.8713 293.057 93.5406 291.879 93.5406C291.094 93.5406 290.381 93.7679 289.74 94.2226C289.1 94.6773 288.593 95.2869 288.221 96.0516C287.87 96.8163 287.694 97.6429 287.694 98.5316V107.46H285.059V97.7566C285.059 96.2686 284.76 95.1939 284.16 94.5326C283.561 93.8713 282.683 93.5406 281.525 93.5406C280.74 93.5406 280.027 93.7783 279.386 94.2536C278.746 94.7083 278.239 95.3283 277.867 96.1136C277.516 96.8783 277.34 97.7049 277.34 98.5936V107.46H274.705V91.6496ZM306.243 106.468L299.702 91.6496H302.554L307.514 103.399H307.576L312.35 91.6496H315.202L305.437 114.156H302.709L306.243 106.468ZM331.881 107.956C330.331 107.956 328.936 107.584 327.696 106.84C326.456 106.096 325.485 105.083 324.782 103.802C324.1 102.52 323.759 101.105 323.759 99.5546C323.759 98.0046 324.1 96.5889 324.782 95.3076C325.485 94.0263 326.456 93.0136 327.696 92.2696C328.936 91.5256 330.331 91.1536 331.881 91.1536C333.431 91.1536 334.826 91.5256 336.066 92.2696C337.306 93.0136 338.267 94.0263 338.949 95.3076C339.652 96.5889 340.003 98.0046 340.003 99.5546C340.003 101.105 339.652 102.52 338.949 103.802C338.267 105.083 337.306 106.096 336.066 106.84C334.826 107.584 333.431 107.956 331.881 107.956ZM331.881 105.569C332.852 105.569 333.751 105.331 334.578 104.856C335.425 104.36 336.097 103.657 336.593 102.748C337.11 101.838 337.368 100.774 337.368 99.5546C337.368 98.3353 337.11 97.2709 336.593 96.3616C336.097 95.4523 335.425 94.7599 334.578 94.2846C333.751 93.7886 332.852 93.5406 331.881 93.5406C330.91 93.5406 330 93.7886 329.153 94.2846C328.306 94.7599 327.624 95.4523 327.107 96.3616C326.611 97.2709 326.363 98.3353 326.363 99.5546C326.363 100.774 326.611 101.838 327.107 102.748C327.624 103.657 328.306 104.36 329.153 104.856C330 105.331 330.91 105.569 331.881 105.569ZM344.438 94.0366H341.524V91.6496H344.438V89.9446C344.438 88.9526 344.665 88.0846 345.12 87.3406C345.574 86.5966 346.184 86.0283 346.949 85.6356C347.713 85.2223 348.561 85.0156 349.491 85.0156C350.379 85.0156 351.154 85.1396 351.816 85.3876V87.9606C351.444 87.8159 351.092 87.7023 350.762 87.6196C350.431 87.5163 350.038 87.4646 349.584 87.4646C348.902 87.4646 348.313 87.7126 347.817 88.2086C347.321 88.6839 347.073 89.3556 347.073 90.2236V91.6496H351.134V94.0366H347.073V107.46H344.438V94.0366ZM365.403 87.7746H359.172V85.2636H374.238V87.7746H368.038V107.46H365.403V87.7746ZM381.584 107.956C380.076 107.956 378.722 107.594 377.523 106.871C376.325 106.147 375.384 105.155 374.702 103.895C374.041 102.613 373.71 101.177 373.71 99.5856C373.71 98.0563 374.02 96.6509 374.64 95.3696C375.281 94.0883 376.18 93.0653 377.337 92.3006C378.495 91.5359 379.838 91.1536 381.367 91.1536C382.917 91.1536 384.261 91.5049 385.397 92.2076C386.534 92.8896 387.402 93.8403 388.001 95.0596C388.621 96.2789 388.931 97.6739 388.931 99.2446C388.931 99.5546 388.9 99.8233 388.838 100.051H376.345C376.407 101.249 376.697 102.262 377.213 103.089C377.73 103.915 378.381 104.535 379.166 104.949C379.972 105.362 380.809 105.569 381.677 105.569C383.703 105.569 385.263 104.618 386.358 102.717L388.59 103.802C387.908 105.083 386.978 106.096 385.8 106.84C384.643 107.584 383.238 107.956 381.584 107.956ZM386.141 97.8806C386.1 97.2193 385.914 96.5579 385.583 95.8966C385.253 95.2353 384.726 94.6773 384.002 94.2226C383.3 93.7679 382.411 93.5406 381.336 93.5406C380.096 93.5406 379.042 93.9436 378.174 94.7496C377.327 95.5349 376.769 96.5786 376.5 97.8806H386.141ZM399.327 107.956C397.798 107.956 396.424 107.594 395.204 106.871C393.985 106.127 393.034 105.124 392.352 103.864C391.67 102.582 391.329 101.146 391.329 99.5546C391.329 97.9633 391.67 96.5269 392.352 95.2456C393.034 93.9643 393.985 92.9619 395.204 92.2386C396.424 91.5153 397.798 91.1536 399.327 91.1536C401.043 91.1536 402.479 91.5566 403.636 92.3626C404.814 93.1479 405.651 94.2019 406.147 95.5246L403.76 96.5166C403.368 95.5453 402.779 94.8116 401.993 94.3156C401.229 93.7989 400.299 93.5406 399.203 93.5406C398.273 93.5406 397.405 93.7989 396.599 94.3156C395.793 94.8116 395.142 95.5143 394.646 96.4236C394.171 97.3329 393.933 98.3766 393.933 99.5546C393.933 100.733 394.171 101.776 394.646 102.686C395.142 103.595 395.793 104.308 396.599 104.825C397.405 105.321 398.273 105.569 399.203 105.569C400.319 105.569 401.28 105.31 402.086 104.794C402.892 104.277 403.492 103.543 403.884 102.593L406.24 103.585C405.703 104.887 404.835 105.941 403.636 106.747C402.458 107.553 401.022 107.956 399.327 107.956ZM409.089 85.2636H411.724V91.8046L411.6 93.9746H411.724C412.158 93.1686 412.84 92.4969 413.77 91.9596C414.721 91.4223 415.754 91.1536 416.87 91.1536C418.792 91.1536 420.26 91.7219 421.272 92.8586C422.285 93.9746 422.791 95.4626 422.791 97.3226V107.46H420.156V97.7256C420.156 96.2996 419.795 95.2456 419.071 94.5636C418.348 93.8816 417.408 93.5406 416.25 93.5406C415.424 93.5406 414.659 93.7886 413.956 94.2846C413.274 94.7806 412.727 95.4213 412.313 96.2066C411.921 96.9919 411.724 97.8083 411.724 98.6556V107.46H409.089V85.2636ZM426.587 91.6496H429.098V93.9746H429.222C429.656 93.1893 430.349 92.5279 431.299 91.9906C432.25 91.4326 433.263 91.1536 434.337 91.1536C436.239 91.1536 437.685 91.7116 438.677 92.8276C439.69 93.9229 440.196 95.4213 440.196 97.3226V107.46H437.561V97.7256C437.561 96.2583 437.21 95.1939 436.507 94.5326C435.805 93.8713 434.844 93.5406 433.624 93.5406C432.777 93.5406 432.012 93.7783 431.33 94.2536C430.669 94.7289 430.152 95.3593 429.78 96.1446C429.408 96.9093 429.222 97.7153 429.222 98.5626V107.46H426.587V91.6496ZM445.514 88.7356C444.998 88.7356 444.553 88.5496 444.181 88.1776C443.809 87.8056 443.623 87.3613 443.623 86.8446C443.623 86.3279 443.809 85.8939 444.181 85.5426C444.553 85.1706 444.998 84.9846 445.514 84.9846C446.031 84.9846 446.475 85.1706 446.847 85.5426C447.219 85.8939 447.405 86.3279 447.405 86.8446C447.405 87.3613 447.219 87.8056 446.847 88.1776C446.496 88.5496 446.052 88.7356 445.514 88.7356ZM444.212 91.6496H446.816V107.46H444.212V91.6496ZM457.967 107.956C456.438 107.956 455.063 107.594 453.844 106.871C452.625 106.127 451.674 105.124 450.992 103.864C450.31 102.582 449.969 101.146 449.969 99.5546C449.969 97.9633 450.31 96.5269 450.992 95.2456C451.674 93.9643 452.625 92.9619 453.844 92.2386C455.063 91.5153 456.438 91.1536 457.967 91.1536C459.682 91.1536 461.119 91.5566 462.276 92.3626C463.454 93.1479 464.291 94.2019 464.787 95.5246L462.4 96.5166C462.007 95.5453 461.418 94.8116 460.633 94.3156C459.868 93.7989 458.938 93.5406 457.843 93.5406C456.913 93.5406 456.045 93.7989 455.239 94.3156C454.433 94.8116 453.782 95.5143 453.286 96.4236C452.811 97.3329 452.573 98.3766 452.573 99.5546C452.573 100.733 452.811 101.776 453.286 102.686C453.782 103.595 454.433 104.308 455.239 104.825C456.045 105.321 456.913 105.569 457.843 105.569C458.959 105.569 459.92 105.31 460.726 104.794C461.532 104.277 462.131 103.543 462.524 102.593L464.88 103.585C464.343 104.887 463.475 105.941 462.276 106.747C461.098 107.553 459.662 107.956 457.967 107.956ZM472.631 107.956C471.473 107.956 470.44 107.728 469.531 107.274C468.621 106.819 467.919 106.199 467.423 105.414C466.927 104.608 466.679 103.698 466.679 102.686C466.679 101.012 467.309 99.7096 468.57 98.7796C469.83 97.8289 471.422 97.3536 473.344 97.3536C474.294 97.3536 475.173 97.4569 475.979 97.6636C476.805 97.8703 477.436 98.1079 477.87 98.3766V97.4156C477.87 96.2376 477.456 95.2973 476.63 94.5946C475.803 93.8713 474.759 93.5096 473.499 93.5096C472.61 93.5096 471.794 93.7059 471.05 94.0986C470.306 94.4706 469.717 94.9976 469.283 95.6796L467.299 94.1916C467.919 93.2409 468.766 92.4969 469.841 91.9596C470.936 91.4223 472.145 91.1536 473.468 91.1536C475.617 91.1536 477.301 91.7219 478.521 92.8586C479.761 93.9746 480.381 95.5039 480.381 97.4466V107.46H477.87V105.197H477.746C477.291 105.961 476.609 106.612 475.7 107.15C474.79 107.687 473.767 107.956 472.631 107.956ZM472.879 105.631C473.767 105.631 474.594 105.403 475.359 104.949C476.123 104.494 476.733 103.884 477.188 103.12C477.642 102.355 477.87 101.518 477.87 100.609C477.374 100.278 476.764 100.009 476.041 99.8026C475.317 99.5959 474.553 99.4926 473.747 99.4926C472.3 99.4926 471.205 99.7923 470.461 100.392C469.737 100.991 469.376 101.766 469.376 102.717C469.376 103.585 469.706 104.287 470.368 104.825C471.029 105.362 471.866 105.631 472.879 105.631ZM484.046 85.2636H486.681V107.46H484.046V85.2636ZM498.317 85.2636H511.151V87.7746H500.921V95.1216H510.159V97.6016H500.921V104.949H511.151V107.46H498.317V85.2636ZM520.955 107.956C519.55 107.956 518.268 107.594 517.111 106.871C515.974 106.147 515.075 105.155 514.414 103.895C513.753 102.613 513.422 101.167 513.422 99.5546C513.422 97.9633 513.753 96.5269 514.414 95.2456C515.075 93.9643 515.974 92.9619 517.111 92.2386C518.268 91.5153 519.55 91.1536 520.955 91.1536C522.174 91.1536 523.259 91.4326 524.21 91.9906C525.161 92.5279 525.884 93.1996 526.38 94.0056H526.504L526.38 91.8046V85.2636H529.015V107.46H526.504V105.135H526.38C525.884 105.92 525.161 106.592 524.21 107.15C523.259 107.687 522.174 107.956 520.955 107.956ZM521.265 105.569C522.195 105.569 523.053 105.321 523.838 104.825C524.644 104.329 525.285 103.626 525.76 102.717C526.256 101.807 526.504 100.753 526.504 99.5546C526.504 98.3559 526.256 97.3019 525.76 96.3926C525.285 95.4833 524.644 94.7806 523.838 94.2846C523.053 93.7886 522.195 93.5406 521.265 93.5406C520.356 93.5406 519.498 93.7886 518.692 94.2846C517.886 94.7806 517.235 95.4936 516.739 96.4236C516.264 97.3329 516.026 98.3766 516.026 99.5546C516.026 100.733 516.264 101.787 516.739 102.717C517.235 103.626 517.886 104.329 518.692 104.825C519.498 105.321 520.356 105.569 521.265 105.569ZM538.643 107.956C536.741 107.956 535.284 107.398 534.272 106.282C533.28 105.166 532.784 103.605 532.784 101.601V91.6496H535.419V101.198C535.419 102.706 535.76 103.812 536.442 104.515C537.124 105.217 538.043 105.569 539.201 105.569C540.089 105.569 540.875 105.331 541.557 104.856C542.259 104.38 542.797 103.76 543.169 102.996C543.561 102.231 543.758 101.425 543.758 100.578V91.6496H546.393V107.46H543.882V105.166H543.758C543.324 105.951 542.631 106.612 541.681 107.15C540.73 107.687 539.717 107.956 538.643 107.956ZM557.294 107.956C555.765 107.956 554.391 107.594 553.171 106.871C551.952 106.127 551.001 105.124 550.319 103.864C549.637 102.582 549.296 101.146 549.296 99.5546C549.296 97.9633 549.637 96.5269 550.319 95.2456C551.001 93.9643 551.952 92.9619 553.171 92.2386C554.391 91.5153 555.765 91.1536 557.294 91.1536C559.01 91.1536 560.446 91.5566 561.603 92.3626C562.781 93.1479 563.618 94.2019 564.114 95.5246L561.727 96.5166C561.335 95.5453 560.746 94.8116 559.96 94.3156C559.196 93.7989 558.266 93.5406 557.17 93.5406C556.24 93.5406 555.372 93.7989 554.566 94.3156C553.76 94.8116 553.109 95.5143 552.613 96.4236C552.138 97.3329 551.9 98.3766 551.9 99.5546C551.9 100.733 552.138 101.776 552.613 102.686C553.109 103.595 553.76 104.308 554.566 104.825C555.372 105.321 556.24 105.569 557.17 105.569C558.286 105.569 559.247 105.31 560.053 104.794C560.859 104.277 561.459 103.543 561.851 102.593L564.207 103.585C563.67 104.887 562.802 105.941 561.603 106.747C560.425 107.553 558.989 107.956 557.294 107.956ZM571.958 107.956C570.8 107.956 569.767 107.728 568.858 107.274C567.948 106.819 567.246 106.199 566.75 105.414C566.254 104.608 566.006 103.698 566.006 102.686C566.006 101.012 566.636 99.7096 567.897 98.7796C569.157 97.8289 570.749 97.3536 572.671 97.3536C573.621 97.3536 574.5 97.4569 575.306 97.6636C576.132 97.8703 576.763 98.1079 577.197 98.3766V97.4156C577.197 96.2376 576.783 95.2973 575.957 94.5946C575.13 93.8713 574.086 93.5096 572.826 93.5096C571.937 93.5096 571.121 93.7059 570.377 94.0986C569.633 94.4706 569.044 94.9976 568.61 95.6796L566.626 94.1916C567.246 93.2409 568.093 92.4969 569.168 91.9596C570.263 91.4223 571.472 91.1536 572.795 91.1536C574.944 91.1536 576.628 91.7219 577.848 92.8586C579.088 93.9746 579.708 95.5039 579.708 97.4466V107.46H577.197V105.197H577.073C576.618 105.961 575.936 106.612 575.027 107.15C574.117 107.687 573.094 107.956 571.958 107.956ZM572.206 105.631C573.094 105.631 573.921 105.403 574.686 104.949C575.45 104.494 576.06 103.884 576.515 103.12C576.969 102.355 577.197 101.518 577.197 100.609C576.701 100.278 576.091 100.009 575.368 99.8026C574.644 99.5959 573.88 99.4926 573.074 99.4926C571.627 99.4926 570.532 99.7923 569.788 100.392C569.064 100.991 568.703 101.766 568.703 102.717C568.703 103.585 569.033 104.287 569.695 104.825C570.356 105.362 571.193 105.631 572.206 105.631ZM589.147 107.708C588.506 107.708 587.907 107.604 587.349 107.398C586.811 107.191 586.357 106.912 585.985 106.561C585.571 106.168 585.261 105.713 585.055 105.197C584.848 104.68 584.745 104.05 584.745 103.306V94.0366H581.986V91.6496H584.745V87.1856H587.38V91.6496H591.224V94.0366H587.38V102.655C587.38 103.523 587.545 104.163 587.876 104.577C588.268 105.031 588.837 105.259 589.581 105.259C590.18 105.259 590.759 105.083 591.317 104.732V107.305C591.007 107.449 590.686 107.553 590.356 107.615C590.046 107.677 589.643 107.708 589.147 107.708ZM596.125 88.7356C595.608 88.7356 595.164 88.5496 594.792 88.1776C594.42 87.8056 594.234 87.3613 594.234 86.8446C594.234 86.3279 594.42 85.8939 594.792 85.5426C595.164 85.1706 595.608 84.9846 596.125 84.9846C596.641 84.9846 597.086 85.1706 597.458 85.5426C597.83 85.8939 598.016 86.3279 598.016 86.8446C598.016 87.3613 597.83 87.8056 597.458 88.1776C597.106 88.5496 596.662 88.7356 596.125 88.7356ZM594.823 91.6496H597.427V107.46H594.823V91.6496ZM608.701 107.956C607.151 107.956 605.756 107.584 604.516 106.84C603.276 106.096 602.305 105.083 601.602 103.802C600.92 102.52 600.579 101.105 600.579 99.5546C600.579 98.0046 600.92 96.5889 601.602 95.3076C602.305 94.0263 603.276 93.0136 604.516 92.2696C605.756 91.5256 607.151 91.1536 608.701 91.1536C610.251 91.1536 611.646 91.5256 612.886 92.2696C614.126 93.0136 615.087 94.0263 615.769 95.3076C616.472 96.5889 616.823 98.0046 616.823 99.5546C616.823 101.105 616.472 102.52 615.769 103.802C615.087 105.083 614.126 106.096 612.886 106.84C611.646 107.584 610.251 107.956 608.701 107.956ZM608.701 105.569C609.673 105.569 610.572 105.331 611.398 104.856C612.246 104.36 612.917 103.657 613.413 102.748C613.93 101.838 614.188 100.774 614.188 99.5546C614.188 98.3353 613.93 97.2709 613.413 96.3616C612.917 95.4523 612.246 94.7599 611.398 94.2846C610.572 93.7886 609.673 93.5406 608.701 93.5406C607.73 93.5406 606.821 93.7886 605.973 94.2846C605.126 94.7599 604.444 95.4523 603.927 96.3616C603.431 97.2709 603.183 98.3353 603.183 99.5546C603.183 100.774 603.431 101.838 603.927 102.748C604.444 103.657 605.126 104.36 605.973 104.856C606.821 105.331 607.73 105.569 608.701 105.569ZM619.58 91.6496H622.091V93.9746H622.215C622.649 93.1893 623.342 92.5279 624.292 91.9906C625.243 91.4326 626.256 91.1536 627.33 91.1536C629.232 91.1536 630.678 91.7116 631.67 92.8276C632.683 93.9229 633.189 95.4213 633.189 97.3226V107.46H630.554V97.7256C630.554 96.2583 630.203 95.1939 629.5 94.5326C628.798 93.8713 627.837 93.5406 626.617 93.5406C625.77 93.5406 625.005 93.7783 624.323 94.2536C623.662 94.7289 623.145 95.3593 622.773 96.1446C622.401 96.9093 622.215 97.7153 622.215 98.5626V107.46H619.58V91.6496Z" fill="#585858"/>
</svg>
