<svg width="488" height="850" viewBox="0 0 488 850" fill="none" xmlns="http://www.w3.org/2000/svg">
<path fill-rule="evenodd" clip-rule="evenodd" d="M210.538 429.227H224.565V379.294C224.565 371.853 230.56 365.821 237.955 365.821H281.177C288.572 365.821 294.567 371.853 294.567 379.294V427.85H306.897C311.275 427.85 314.824 431.421 314.824 435.826V597.808C314.824 602.213 311.275 605.783 306.897 605.783H281.829C277.451 605.783 273.902 602.213 273.902 597.808C273.902 593.403 277.451 589.833 281.829 589.833H298.97V554.942C294.273 547.723 288.367 543.423 281.952 543.423C266.64 543.423 254.227 567.918 254.227 598.134C254.227 628.35 266.64 652.846 281.952 652.846C295.955 652.846 307.534 632.357 309.41 605.74C312.619 604.72 314.946 601.701 314.946 598.134V507.243C329.272 527.532 338.603 560.682 338.603 598.134C338.603 659.879 313.239 709.934 281.951 709.934C281.199 709.934 280.45 709.905 279.705 709.847H237.928C237.183 709.905 236.434 709.934 235.682 709.934C204.393 709.934 179.03 659.879 179.03 598.134C179.03 560.747 188.329 527.647 202.612 507.349V437.202C202.612 432.798 206.161 429.227 210.538 429.227ZM224.565 454.622V445.18H218.465V491.594C223.894 488.18 229.679 486.338 235.682 486.338C235.74 486.338 235.799 486.338 235.858 486.339H281.775C281.833 486.338 281.892 486.338 281.951 486.338C287.881 486.338 293.598 488.136 298.97 491.471V443.804H294.567V454.622C294.567 462.063 288.572 468.095 281.177 468.095H237.955C230.56 468.095 224.565 462.063 224.565 454.622Z" fill="#6CA1FF"/>
<path fill-rule="evenodd" clip-rule="evenodd" d="M309.269 605.423C308.52 605.659 307.723 605.787 306.897 605.787H281.829C277.451 605.787 273.902 602.216 273.902 597.812C273.902 593.407 277.451 589.836 281.829 589.836H298.97V554.781C294.251 547.435 288.292 543.052 281.815 543.052C266.503 543.052 254.091 567.546 254.091 597.763C254.091 627.979 266.503 652.475 281.815 652.475C295.809 652.475 307.381 632.013 309.269 605.423L309.269 605.423Z" fill="#19141E"/>
<path fill-rule="evenodd" clip-rule="evenodd" d="M294.8 417.351H224.798V393.229H294.8V417.351Z" fill="#19141E"/>
<path opacity="0.395764" fill-rule="evenodd" clip-rule="evenodd" d="M217.934 491.662C218.171 491.502 218.412 491.341 218.656 491.179V445.573H224.989V429.623H210.729C206.352 429.623 202.803 433.193 202.803 437.598C202.677 468.207 202.613 491.221 202.612 506.642C203.048 506.065 203.488 505.5 203.933 504.947C204.269 504.482 204.597 504.025 204.899 503.697C204.977 503.612 205.053 503.529 205.127 503.447C189.197 523.234 178.611 558.244 178.611 598.134C178.611 659.879 203.974 709.934 235.263 709.934C236.015 709.934 236.764 709.905 237.509 709.847H279.286C249.039 707.519 224.88 658.394 224.88 598.134C224.88 536.505 250.149 486.524 281.356 486.336L235.439 486.336C235.381 486.336 235.322 486.336 235.263 486.336C229.219 486.336 223.396 488.203 217.934 491.662ZM208.666 499.397C208.241 499.843 207.82 500.3 207.402 500.766C207.775 500.331 208.173 499.89 208.666 499.397ZM298.971 589.834H281.829C277.451 589.834 273.902 593.405 273.902 597.81C273.902 602.214 277.451 605.785 281.829 605.785H306.897C311.275 605.785 314.824 602.214 314.824 597.81V435.827C314.824 431.423 311.275 427.852 306.897 427.852H281.829C277.451 427.852 273.902 431.423 273.902 435.827C273.902 440.232 277.451 443.803 281.829 443.803H298.971V589.834Z" fill="black"/>
<path d="M373.314 526.546L391.996 506.295L364.911 471.5L332.394 499.7L344.121 524.457" stroke="#19141E" stroke-width="29.8215"/>
<path d="M170.436 524.876L187.182 503L157.022 470.833L127.227 501.891L141.174 525.471" stroke="#19141E" stroke-width="29.8215"/>
<path d="M156.688 378.852L170.114 280.457" stroke="#19141E" stroke-width="53.6787" stroke-linecap="round"/>
<path d="M371.114 375.854L356.961 277.562" stroke="#19141E" stroke-width="53.6787" stroke-linecap="round"/>
<path fill-rule="evenodd" clip-rule="evenodd" d="M212.924 321H251.147C256.842 321 261.459 316.385 261.459 310.692V272.484C261.459 266.792 256.842 262.177 251.147 262.177H212.924C207.229 262.177 202.612 266.792 202.612 272.484V310.692C202.612 316.385 207.229 321 212.924 321Z" fill="#19141E"/>
<path fill-rule="evenodd" clip-rule="evenodd" d="M222.675 321H251.147C256.842 321 261.459 316.385 261.459 310.692V272.484C261.459 266.792 256.842 262.177 251.147 262.177H222.675C216.98 262.177 212.364 266.792 212.364 272.484V310.692C212.364 316.385 216.98 321 222.675 321Z" fill="#405FD3"/>
<path fill-rule="evenodd" clip-rule="evenodd" d="M355.4 308.995C355.668 309.002 355.938 309.005 356.208 309.005C373.975 309.005 388.377 294.607 388.377 276.847C388.377 259.087 373.975 244.689 356.208 244.689C352.413 244.689 348.771 245.346 345.391 246.553C329.539 218.04 299.101 198.747 264.155 198.747C230.819 198.747 201.586 216.302 185.202 242.668C181.953 241.564 178.47 240.966 174.847 240.966C157.08 240.966 142.677 255.364 142.677 273.124C142.677 290.015 155.706 303.864 172.266 305.179C178.845 350.009 217.478 384.427 264.155 384.427C309.496 384.427 347.249 351.948 355.4 308.995ZM411.435 397.791C412.411 384.722 402.603 373.338 389.53 372.362L356.684 369.913C343.611 368.937 332.222 378.741 331.247 391.809L325.66 466.649C324.685 479.718 334.492 491.102 347.565 492.077L380.411 494.528C393.485 495.502 404.874 485.698 405.849 472.63L411.435 397.791ZM173.362 368.307C186.472 368.237 197.156 378.804 197.225 391.909L197.625 466.955C197.695 480.06 187.124 490.74 174.015 490.81L141.078 490.985C127.969 491.055 117.284 480.488 117.215 467.383L116.815 392.337C116.745 379.233 127.316 368.553 140.426 368.482L173.362 368.307Z" fill="#6CA1FF"/>
<path fill-rule="evenodd" clip-rule="evenodd" d="M299.619 205.838H228.689V182.39H299.619V205.838Z" fill="#19141E"/>
<path fill-rule="evenodd" clip-rule="evenodd" d="M222.675 321C216.98 321 212.363 316.385 212.363 310.692V272.484C212.363 266.792 216.98 262.177 222.675 262.177H212.923C207.229 262.177 202.612 266.792 202.612 272.484V310.692C202.612 316.385 207.229 321 212.923 321H222.675Z" fill="#19141E"/>
<path opacity="0.401762" d="M388.4 395.605L397.319 396.308V396.308L388.4 395.605ZM398.022 387.389L397.319 396.308H397.319L398.022 387.389ZM382.503 470.466L373.584 469.763L382.503 470.466ZM390.72 480.087L390.017 489.006L390.72 480.087ZM400.341 471.871L409.26 472.574H409.26L400.341 471.871ZM406.238 397.01L397.319 396.308V396.308L406.238 397.01ZM373.783 394.357L364.865 393.654L373.783 394.357ZM383.405 386.14L382.702 395.059L383.405 386.14ZM367.887 469.218L358.968 468.515L367.887 469.218ZM376.103 478.839L376.805 469.92L376.103 478.839ZM385.724 470.623L376.805 469.92L385.724 470.623ZM391.621 395.762L382.702 395.059L391.621 395.762ZM379.481 394.902C380.257 385.051 388.873 377.694 398.724 378.47L397.319 396.308L397.319 396.308L379.481 394.902ZM373.584 469.763L379.481 394.902L397.319 396.308L391.422 471.168L373.584 469.763ZM390.017 489.006C380.166 488.23 372.808 479.615 373.584 469.763L391.422 471.168H391.422L390.017 489.006ZM409.26 472.574C408.484 482.425 399.868 489.782 390.017 489.006L391.422 471.168L391.422 471.168L409.26 472.574ZM415.157 397.713L409.26 472.574L391.422 471.168L397.319 396.308L415.157 397.713ZM398.724 378.47C408.576 379.246 415.933 387.861 415.157 397.713L397.319 396.308L397.319 396.308L398.724 378.47ZM364.865 393.654C365.641 383.803 374.256 376.446 384.107 377.222L382.702 395.059L364.865 393.654ZM358.968 468.515L364.865 393.654L382.702 395.059L376.805 469.92L358.968 468.515ZM375.4 487.758C365.549 486.982 358.192 478.366 358.968 468.515L376.805 469.92H376.805L375.4 487.758ZM394.643 471.325C393.867 481.177 385.252 488.534 375.4 487.758L376.805 469.92H376.805L394.643 471.325ZM400.54 396.464L394.643 471.325L376.805 469.92L382.702 395.059L400.54 396.464ZM384.107 377.222C393.959 377.998 401.316 386.613 400.54 396.464L382.702 395.059L384.107 377.222Z" fill="black"/>
<path opacity="0.397763" fill-rule="evenodd" clip-rule="evenodd" d="M222.637 320.963H251.108C256.804 320.963 261.421 316.348 261.421 310.655V272.447C261.421 266.755 256.804 262.14 251.108 262.14H222.637C216.942 262.14 212.326 266.755 212.326 272.447V310.655C212.326 316.348 216.942 320.963 222.637 320.963ZM246.237 288.597C242.112 288.597 238.766 285.253 238.766 281.128C238.766 277.004 242.112 273.661 246.237 273.661C250.363 273.661 253.708 277.004 253.708 281.128C253.708 285.253 250.363 288.597 246.237 288.597ZM225.007 288.597C220.881 288.597 217.536 285.253 217.536 281.128C217.536 277.004 220.881 273.661 225.007 273.661C229.133 273.661 232.478 277.004 232.478 281.128C232.478 285.253 229.133 288.597 225.007 288.597ZM246.237 310.182C242.112 310.182 238.766 306.839 238.766 302.714C238.766 298.59 242.112 295.247 246.237 295.247C250.363 295.247 253.708 298.59 253.708 302.714C253.708 306.839 250.363 310.182 246.237 310.182Z" fill="black"/>
<path opacity="0.404204" fill-rule="evenodd" clip-rule="evenodd" d="M389.341 276.574C389.341 294.334 374.938 308.732 357.171 308.732C339.404 308.732 325.001 294.334 325.001 276.574C325.001 258.814 339.404 244.417 357.171 244.417C374.938 244.417 389.341 258.814 389.341 276.574Z" fill="black"/>
<path opacity="0.398763" fill-rule="evenodd" clip-rule="evenodd" d="M196.573 392.079L196.973 467.125C197.043 480.23 186.472 490.91 173.363 490.98L140.426 491.155C127.317 491.225 116.632 480.658 116.563 467.553L116.163 392.507C116.093 379.403 126.664 368.723 139.774 368.652L172.71 368.477C185.82 368.407 196.504 378.974 196.573 392.079Z" fill="black"/>
<path opacity="0.397856" fill-rule="evenodd" clip-rule="evenodd" d="M185.449 243.017C182.2 241.914 178.717 241.315 175.094 241.315C157.327 241.315 142.923 255.713 142.923 273.473C142.923 290.364 155.953 304.214 172.513 305.528C171.862 301.092 171.525 296.553 171.525 291.936C171.525 273.984 176.622 257.222 185.449 243.017H185.449Z" fill="black"/>
<path opacity="0.598121" fill-rule="evenodd" clip-rule="evenodd" d="M246.238 310.172C242.112 310.172 238.767 306.828 238.767 302.703C238.767 298.579 242.112 295.236 246.238 295.236C250.364 295.236 253.708 298.579 253.708 302.703C253.708 306.828 250.364 310.172 246.238 310.172Z" fill="black"/>
<path d="M282.317 71.1113C282.317 71.1113 266.838 81.3453 265.135 99.0512" stroke="#19141E" stroke-width="9.94051" stroke-linecap="round"/>
<path fill-rule="evenodd" clip-rule="evenodd" d="M283.782 78.7796C278.622 78.7796 274.44 74.598 274.44 69.4407C274.44 64.2833 278.622 60.1025 283.782 60.1025C288.941 60.1025 293.124 64.2833 293.124 69.4407C293.124 74.598 288.941 78.7796 283.782 78.7796ZM328.284 145.57H281.408V182.679H254.496V145.57H210.083C199.906 145.57 191.578 137.246 191.578 127.072V114.602C191.578 104.428 199.906 96.1036 210.083 96.1036H328.284C338.461 96.1036 346.789 104.428 346.789 114.602V127.072C346.789 137.246 338.461 145.57 328.284 145.57Z" fill="#6CA1FF"/>
<path opacity="0.399042" fill-rule="evenodd" clip-rule="evenodd" d="M281.408 182.679H254.496V145.461H281.408V182.679Z" fill="black"/>
<path opacity="0.400367" fill-rule="evenodd" clip-rule="evenodd" d="M281.408 170.642L254.495 161.78V145.312H281.408V170.642Z" fill="black"/>
<path fill-rule="evenodd" clip-rule="evenodd" d="M328.284 145.57C338.462 145.57 346.79 137.246 346.79 127.072V114.602C346.79 104.428 338.462 96.1035 328.284 96.1035C318.106 96.1035 309.779 104.428 309.779 114.602V127.072C309.779 137.246 318.106 145.57 328.284 145.57Z" fill="#19141E"/>
<path fill-rule="evenodd" clip-rule="evenodd" d="M299.26 120.837C299.26 128.67 292.908 135.02 285.072 135.02C277.236 135.02 270.883 128.67 270.883 120.837C270.883 113.004 277.236 106.654 285.072 106.654C292.908 106.654 299.26 113.004 299.26 120.837Z" fill="white"/>
<path fill-rule="evenodd" clip-rule="evenodd" d="M289.752 118.844C289.752 122.443 286.834 125.36 283.234 125.36C279.634 125.36 276.716 122.443 276.716 118.844C276.716 115.246 279.634 112.329 283.234 112.329C286.834 112.329 289.752 115.246 289.752 118.844Z" fill="#19141E"/>
<path fill-rule="evenodd" clip-rule="evenodd" d="M230.07 120.837C230.07 128.67 223.718 135.02 215.881 135.02C208.045 135.02 201.692 128.67 201.692 120.837C201.692 113.004 208.045 106.654 215.881 106.654C223.718 106.654 230.07 113.004 230.07 120.837Z" fill="white"/>
<path fill-rule="evenodd" clip-rule="evenodd" d="M220.562 118.844C220.562 122.443 217.644 125.36 214.044 125.36C210.444 125.36 207.525 122.443 207.525 118.844C207.525 115.246 210.444 112.329 214.044 112.329C217.644 112.329 220.562 115.246 220.562 118.844Z" fill="#19141E"/>
<path fill-rule="evenodd" clip-rule="evenodd" d="M253.719 111.116L241.029 120.742L253.719 130.559" fill="#19141E"/>
</svg>
